<svg width="25" height="25" viewBox="0 0 25 25" fill="none" xmlns="http://www.w3.org/2000/svg">
<path fill-rule="evenodd" clip-rule="evenodd" d="M12.5 25C14.1415 25 15.767 24.6767 17.2835 24.0485C18.8001 23.4203 20.1781 22.4996 21.3388 21.3388C22.4996 20.1781 23.4203 18.8001 24.0485 17.2835C24.6767 15.767 25 14.1415 25 12.5C25 10.8585 24.6767 9.23303 24.0485 7.71646C23.4203 6.19989 22.4996 4.8219 21.3388 3.66116C20.1781 2.50043 18.8001 1.57969 17.2835 0.951506C15.767 0.323322 14.1415 -2.44606e-08 12.5 0C9.18479 4.94004e-08 6.00537 1.31696 3.66117 3.66116C1.31696 6.00537 0 9.18479 0 12.5C0 15.8152 1.31696 18.9946 3.66117 21.3388C6.00537 23.683 9.18479 25 12.5 25ZM13.4819 17.6486C13.353 17.7777 13.1999 17.88 13.0314 17.9499C12.8629 18.0198 12.6822 18.0558 12.4998 18.0558C12.3174 18.0559 12.1367 18.02 11.9681 17.9503C11.7996 17.8805 11.6464 17.7783 11.5174 17.6493C11.3883 17.5204 11.2859 17.3672 11.2161 17.1987C11.1462 17.0302 11.1102 16.8496 11.1101 16.6672C11.11 16.2987 11.2562 15.9453 11.5167 15.6847L13.3125 13.8889H8.33333C7.96498 13.8889 7.61171 13.7426 7.35124 13.4821C7.09077 13.2216 6.94444 12.8684 6.94444 12.5C6.94444 12.1316 7.09077 11.7784 7.35124 11.5179C7.61171 11.2574 7.96498 11.1111 8.33333 11.1111H13.3139L11.5181 9.31528C11.2576 9.05466 11.1114 8.70127 11.1115 8.33284C11.1117 7.96441 11.2581 7.61112 11.5187 7.35069C11.7794 7.09027 12.1328 6.94403 12.5012 6.94416C12.8696 6.94429 13.2229 7.09078 13.4833 7.35139L17.65 11.5181C17.9104 11.7785 18.0566 12.1317 18.0566 12.5C18.0566 12.8683 17.9104 13.2215 17.65 13.4819L13.4833 17.6486H13.4819Z" fill="#212121"/>
</svg>
