<svg width="22" height="16" viewBox="0 0 22 16" fill="none" xmlns="http://www.w3.org/2000/svg">
<path d="M6.35556 16C5.54074 16 4.84815 15.7083 4.27778 15.125C3.70741 14.5417 3.42222 13.8333 3.42222 13H0.977778L1.41778 11H4.18C4.45704 10.6833 4.78296 10.4377 5.15778 10.263C5.53259 10.0883 5.93185 10.0007 6.35556 10C6.77926 9.99933 7.17852 10.087 7.55333 10.263C7.92815 10.439 8.25407 10.6847 8.53111 11H12.6133L14.6667 2H3.96L4.05778 1.575C4.15556 1.10833 4.37947 0.729334 4.72951 0.438C5.07956 0.146667 5.4912 0.000666667 5.96444 0H17.1111L16.2067 4H19.0667L22 8L21.0222 13H19.0667C19.0667 13.8333 18.7815 14.5417 18.2111 15.125C17.6407 15.7083 16.9481 16 16.1333 16C15.3185 16 14.6259 15.7083 14.0556 15.125C13.4852 14.5417 13.2 13.8333 13.2 13H9.28889C9.28889 13.8333 9.0037 14.5417 8.43333 15.125C7.86296 15.7083 7.17037 16 6.35556 16ZM15.0822 9H19.8L19.8978 8.475L18.0889 6H15.7667L15.0822 9ZM14.6178 2.175L14.6667 2L12.6133 11L12.6622 10.825L13.4933 7.175L14.6178 2.175ZM0 9.325L0.488889 7.325H5.86667L5.37778 9.325H0ZM1.95556 5.675L2.44444 3.675H8.8L8.31111 5.675H1.95556ZM6.35556 14C6.63259 14 6.86498 13.904 7.05271 13.712C7.24044 13.52 7.33399 13.2827 7.33333 13C7.33268 12.7173 7.23881 12.48 7.05173 12.288C6.86465 12.096 6.63259 12 6.35556 12C6.07852 12 5.84646 12.096 5.65938 12.288C5.4723 12.48 5.37843 12.7173 5.37778 13C5.37713 13.2827 5.47099 13.5203 5.65938 13.713C5.84776 13.9057 6.07982 14.0013 6.35556 14ZM16.1333 14C16.4104 14 16.6428 13.904 16.8305 13.712C17.0182 13.52 17.1118 13.2827 17.1111 13C17.1105 12.7173 17.0166 12.48 16.8295 12.288C16.6424 12.096 16.4104 12 16.1333 12C15.8563 12 15.6242 12.096 15.4372 12.288C15.2501 12.48 15.1562 12.7173 15.1556 13C15.1549 13.2827 15.2488 13.5203 15.4372 13.713C15.6255 13.9057 15.8576 14.0013 16.1333 14Z" fill="#202020"/>
</svg>
