<svg width="18" height="18" viewBox="0 0 18 18" fill="none" xmlns="http://www.w3.org/2000/svg">
<path fill-rule="evenodd" clip-rule="evenodd" d="M6 5.69775e-09C6.56748 -2.94739e-05 7.12848 0.114335 7.64572 0.335497C8.16296 0.556658 8.62461 0.879555 9 1.28274C9.37539 0.879555 9.83704 0.556658 10.3543 0.335497C10.8715 0.114335 11.4325 -2.94739e-05 12 5.69775e-09H12.5C12.8978 5.69775e-09 13.2794 0.149718 13.5607 0.416217C13.842 0.682716 14 1.04417 14 1.42105V1.89474C14 2.58537 13.805 3.23242 13.465 3.78947H16C16.5304 3.78947 17.0391 3.9891 17.4142 4.34443C17.7893 4.69976 18 5.1817 18 5.68421V8.52632C18 8.8589 17.9076 9.18563 17.732 9.47366C17.5565 9.76168 17.304 10.0009 17 10.1672V15.1579C17 15.9117 16.6839 16.6346 16.1213 17.1676C15.5587 17.7006 14.7956 18 14 18H4C3.20435 18 2.44129 17.7006 1.87868 17.1676C1.31607 16.6346 1 15.9117 1 15.1579V10.1672C0.695969 10.0009 0.443498 9.76168 0.267962 9.47366C0.0924258 9.18563 8.91844e-06 8.8589 0 8.52632V5.68421C0 5.1817 0.210714 4.69976 0.585786 4.34443C0.960859 3.9891 1.46957 3.78947 2 3.78947H4.535C4.18424 3.21332 3.99973 2.55985 4 1.89474V1.42105C4 1.04417 4.15804 0.682716 4.43934 0.416217C4.72064 0.149718 5.10218 5.69775e-09 5.5 5.69775e-09H6ZM15 10.4211H10V16.1053H14L14.117 16.0986C14.3402 16.0737 14.5481 15.9782 14.707 15.8277C14.8659 15.6771 14.9667 15.4802 14.993 15.2687L15 15.1579V10.4211ZM8 10.4211H3V15.1579C3.00003 15.3899 3.08996 15.6139 3.25272 15.7873C3.41547 15.9607 3.63975 16.0715 3.883 16.0986L4 16.1053H8V10.4211ZM16 5.68421H10V8.52632H16V5.68421ZM8 5.68421H2V8.52632H8V5.68421ZM6 1.89474C6 2.39725 6.21071 2.87919 6.58579 3.23452C6.96086 3.58985 7.46957 3.78947 8 3.78947C8 3.28696 7.78929 2.80502 7.41421 2.44969C7.03914 2.09436 6.53043 1.89474 6 1.89474ZM12 1.89474C11.4696 1.89474 10.9609 2.09436 10.5858 2.44969C10.2107 2.80502 10 3.28696 10 3.78947C10.5304 3.78947 11.0391 3.58985 11.4142 3.23452C11.7893 2.87919 12 2.39725 12 1.89474Z" fill="#202020"/>
</svg>
